STARTFONT 2.1
COMMENT
COMMENT Converted from OpenType font "slkscr.ttf" by "otf2bdf 3.0".
COMMENT
FONT -FreeType-Silkscreen-Medium-R-Normal--8-80-72-72-P-41-ISO10646-1
SIZE 8 72 72
FONTBOUNDINGBOX 9 10 0 -2
STARTPROPERTIES 19
FOUNDRY "FreeType"
FAMILY_NAME "Silkscreen"
WEIGHT_NAME "Medium"
SLANT "R"
SETWIDTH_NAME "Normal"
ADD_STYLE_NAME ""
PIXEL_SIZE 8
POINT_SIZE 80
RESOLUTION_X 72
RESOLUTION_Y 72
SPACING "P"
AVERAGE_WIDTH 41
CHARSET_REGISTRY "ISO10646"
CHARSET_ENCODING "1"
FONT_ASCENT 8
FONT_DESCENT 2
COPYRIGHT "Copyright (c) Jason Kottke, 2001. All rights reserved."
_OTF_FONTFILE "slkscr.ttf"
_OTF_PSNAME "Silkscreen"
ENDPROPERTIES
CHARS 218
STARTCHAR 0020
ENCODING 32
SWIDTH 500 0
DWIDTH 4 0
BBX 0 0 0 0
BITMAP
ENDCHAR
STARTCHAR 0021
ENCODING 33
SWIDTH 375 0
DWIDTH 3 0
BBX 1 5 1 0
BITMAP
80
80
80
00
80
ENDCHAR
STARTCHAR 0022
ENCODING 34
SWIDTH 625 0
DWIDTH 5 0
BBX 3 2 1 3
BITMAP
A0
A0
ENDCHAR
STARTCHAR 0023
ENCODING 35
SWIDTH 875 0
DWIDTH 7 0
BBX 5 5 1 0
BITMAP
50
F8
50
F8
50
ENDCHAR
STARTCHAR 0024
ENCODING 36
SWIDTH 750 0
DWIDTH 6 0
BBX 4 7 1 -1
BITMAP
20
70
80
60
10
E0
40
ENDCHAR
STARTCHAR 0025
ENCODING 37
SWIDTH 875 0
DWIDTH 7 0
BBX 5 5 1 0
BITMAP
D0
D0
20
58
58
ENDCHAR
STARTCHAR 0026
ENCODING 38
SWIDTH 750 0
DWIDTH 6 0
BBX 4 7 1 -1
BITMAP
20
70
80
60
80
70
20
ENDCHAR
STARTCHAR 0027
ENCODING 39
SWIDTH 375 0
DWIDTH 3 0
BBX 1 2 1 3
BITMAP
80
80
ENDCHAR
STARTCHAR 0028
ENCODING 40
SWIDTH 500 0
DWIDTH 4 0
BBX 2 5 1 0
BITMAP
40
80
80
80
40
ENDCHAR
STARTCHAR 0029
ENCODING 41
SWIDTH 500 0
DWIDTH 4 0
BBX 2 5 1 0
BITMAP
80
40
40
40
80
ENDCHAR
STARTCHAR 002A
ENCODING 42
SWIDTH 875 0
DWIDTH 7 0
BBX 5 5 1 0
BITMAP
20
A8
70
A8
20
ENDCHAR
STARTCHAR 002B
ENCODING 43
SWIDTH 875 0
DWIDTH 7 0
BBX 5 5 1 0
BITMAP
20
20
F8
20
20
ENDCHAR
STARTCHAR 002C
ENCODING 44
SWIDTH 500 0
DWIDTH 4 0
BBX 2 2 1 -1
BITMAP
40
80
ENDCHAR
STARTCHAR 002D
ENCODING 45
SWIDTH 625 0
DWIDTH 5 0
BBX 3 1 1 2
BITMAP
E0
ENDCHAR
STARTCHAR 002E
ENCODING 46
SWIDTH 375 0
DWIDTH 3 0
BBX 1 1 1 0
BITMAP
80
ENDCHAR
STARTCHAR 002F
ENCODING 47
SWIDTH 625 0
DWIDTH 5 0
BBX 3 5 1 0
BITMAP
20
20
40
80
80
ENDCHAR
STARTCHAR 0030
ENCODING 48
SWIDTH 750 0
DWIDTH 6 0
BBX 4 5 1 0
BITMAP
60
90
90
90
60
ENDCHAR
STARTCHAR 0031
ENCODING 49
SWIDTH 625 0
DWIDTH 5 0
BBX 3 5 1 0
BITMAP
C0
40
40
40
E0
ENDCHAR
STARTCHAR 0032
ENCODING 50
SWIDTH 750 0
DWIDTH 6 0
BBX 4 5 1 0
BITMAP
E0
10
60
80
F0
ENDCHAR
STARTCHAR 0033
ENCODING 51
SWIDTH 750 0
DWIDTH 6 0
BBX 4 5 1 0
BITMAP
E0
10
60
10
E0
ENDCHAR
STARTCHAR 0034
ENCODING 52
SWIDTH 750 0
DWIDTH 6 0
BBX 4 5 1 0
BITMAP
A0
A0
F0
20
20
ENDCHAR
STARTCHAR 0035
ENCODING 53
SWIDTH 750 0
DWIDTH 6 0
BBX 4 5 1 0
BITMAP
F0
80
E0
10
E0
ENDCHAR
STARTCHAR 0036
ENCODING 54
SWIDTH 750 0
DWIDTH 6 0
BBX 4 5 1 0
BITMAP
60
80
E0
90
60
ENDCHAR
STARTCHAR 0037
ENCODING 55
SWIDTH 750 0
DWIDTH 6 0
BBX 4 5 1 0
BITMAP
F0
10
20
40
40
ENDCHAR
STARTCHAR 0038
ENCODING 56
SWIDTH 750 0
DWIDTH 6 0
BBX 4 5 1 0
BITMAP
60
90
60
90
60
ENDCHAR
STARTCHAR 0039
ENCODING 57
SWIDTH 750 0
DWIDTH 6 0
BBX 4 5 1 0
BITMAP
60
90
70
10
60
ENDCHAR
STARTCHAR 003A
ENCODING 58
SWIDTH 375 0
DWIDTH 3 0
BBX 1 3 1 1
BITMAP
80
00
80
ENDCHAR
STARTCHAR 003B
ENCODING 59
SWIDTH 500 0
DWIDTH 4 0
BBX 2 4 1 0
BITMAP
40
00
40
80
ENDCHAR
STARTCHAR 003C
ENCODING 60
SWIDTH 625 0
DWIDTH 5 0
BBX 3 5 1 0
BITMAP
20
40
80
40
20
ENDCHAR
STARTCHAR 003D
ENCODING 61
SWIDTH 625 0
DWIDTH 5 0
BBX 3 3 1 1
BITMAP
E0
00
E0
ENDCHAR
STARTCHAR 003E
ENCODING 62
SWIDTH 625 0
DWIDTH 5 0
BBX 3 5 1 0
BITMAP
80
40
20
40
80
ENDCHAR
STARTCHAR 003F
ENCODING 63
SWIDTH 750 0
DWIDTH 6 0
BBX 4 5 1 0
BITMAP
E0
10
60
00
40
ENDCHAR
STARTCHAR 0040
ENCODING 64
SWIDTH 875 0
DWIDTH 7 0
BBX 5 5 1 0
BITMAP
70
A8
B0
80
70
ENDCHAR
STARTCHAR 0041
ENCODING 65
SWIDTH 750 0
DWIDTH 6 0
BBX 4 5 1 0
BITMAP
60
90
F0
90
90
ENDCHAR
STARTCHAR 0042
ENCODING 66
SWIDTH 750 0
DWIDTH 6 0
BBX 4 5 1 0
BITMAP
E0
90
F0
90
E0
ENDCHAR
STARTCHAR 0043
ENCODING 67
SWIDTH 750 0
DWIDTH 6 0
BBX 4 5 1 0
BITMAP
60
90
80
90
60
ENDCHAR
STARTCHAR 0044
ENCODING 68
SWIDTH 750 0
DWIDTH 6 0
BBX 4 5 1 0
BITMAP
E0
90
90
90
E0
ENDCHAR
STARTCHAR 0045
ENCODING 69
SWIDTH 625 0
DWIDTH 5 0
BBX 3 5 1 0
BITMAP
E0
80
E0
80
E0
ENDCHAR
STARTCHAR 0046
ENCODING 70
SWIDTH 625 0
DWIDTH 5 0
BBX 3 5 1 0
BITMAP
E0
80
E0
80
80
ENDCHAR
STARTCHAR 0047
ENCODING 71
SWIDTH 750 0
DWIDTH 6 0
BBX 4 5 1 0
BITMAP
70
80
B0
90
60
ENDCHAR
STARTCHAR 0048
ENCODING 72
SWIDTH 750 0
DWIDTH 6 0
BBX 4 5 1 0
BITMAP
90
90
F0
90
90
ENDCHAR
STARTCHAR 0049
ENCODING 73
SWIDTH 375 0
DWIDTH 3 0
BBX 1 5 1 0
BITMAP
80
80
80
80
80
ENDCHAR
STARTCHAR 004A
ENCODING 74
SWIDTH 750 0
DWIDTH 6 0
BBX 4 5 1 0
BITMAP
10
10
10
90
60
ENDCHAR
STARTCHAR 004B
ENCODING 75
SWIDTH 750 0
DWIDTH 6 0
BBX 4 5 1 0
BITMAP
90
A0
C0
A0
90
ENDCHAR
STARTCHAR 004C
ENCODING 76
SWIDTH 625 0
DWIDTH 5 0
BBX 3 5 1 0
BITMAP
80
80
80
80
E0
ENDCHAR
STARTCHAR 004D
ENCODING 77
SWIDTH 875 0
DWIDTH 7 0
BBX 5 5 1 0
BITMAP
88
D8
A8
88
88
ENDCHAR
STARTCHAR 004E
ENCODING 78
SWIDTH 875 0
DWIDTH 7 0
BBX 5 5 1 0
BITMAP
88
C8
A8
98
88
ENDCHAR
STARTCHAR 004F
ENCODING 79
SWIDTH 750 0
DWIDTH 6 0
BBX 4 5 1 0
BITMAP
60
90
90
90
60
ENDCHAR
STARTCHAR 0050
ENCODING 80
SWIDTH 750 0
DWIDTH 6 0
BBX 4 5 1 0
BITMAP
E0
90
E0
80
80
ENDCHAR
STARTCHAR 0051
ENCODING 81
SWIDTH 750 0
DWIDTH 6 0
BBX 4 6 1 -1
BITMAP
60
90
90
90
60
10
ENDCHAR
STARTCHAR 0052
ENCODING 82
SWIDTH 750 0
DWIDTH 6 0
BBX 4 5 1 0
BITMAP
E0
90
E0
A0
90
ENDCHAR
STARTCHAR 0053
ENCODING 83
SWIDTH 750 0
DWIDTH 6 0
BBX 4 5 1 0
BITMAP
70
80
60
10
E0
ENDCHAR
STARTCHAR 0054
ENCODING 84
SWIDTH 625 0
DWIDTH 5 0
BBX 3 5 1 0
BITMAP
E0
40
40
40
40
ENDCHAR
STARTCHAR 0055
ENCODING 85
SWIDTH 750 0
DWIDTH 6 0
BBX 4 5 1 0
BITMAP
90
90
90
90
60
ENDCHAR
STARTCHAR 0056
ENCODING 86
SWIDTH 875 0
DWIDTH 7 0
BBX 5 5 1 0
BITMAP
88
88
50
50
20
ENDCHAR
STARTCHAR 0057
ENCODING 87
SWIDTH 875 0
DWIDTH 7 0
BBX 5 5 1 0
BITMAP
88
A8
A8
A8
50
ENDCHAR
STARTCHAR 0058
ENCODING 88
SWIDTH 875 0
DWIDTH 7 0
BBX 5 5 1 0
BITMAP
88
50
20
50
88
ENDCHAR
STARTCHAR 0059
ENCODING 89
SWIDTH 875 0
DWIDTH 7 0
BBX 5 5 1 0
BITMAP
88
50
20
20
20
ENDCHAR
STARTCHAR 005A
ENCODING 90
SWIDTH 625 0
DWIDTH 5 0
BBX 3 5 1 0
BITMAP
E0
20
40
80
E0
ENDCHAR
STARTCHAR 005B
ENCODING 91
SWIDTH 500 0
DWIDTH 4 0
BBX 2 5 1 0
BITMAP
C0
80
80
80
C0
ENDCHAR
STARTCHAR 005C
ENCODING 92
SWIDTH 625 0
DWIDTH 5 0
BBX 3 5 1 0
BITMAP
80
80
40
20
20
ENDCHAR
STARTCHAR 005D
ENCODING 93
SWIDTH 500 0
DWIDTH 4 0
BBX 2 5 1 0
BITMAP
C0
40
40
40
C0
ENDCHAR
STARTCHAR 005E
ENCODING 94
SWIDTH 625 0
DWIDTH 5 0
BBX 3 2 1 4
BITMAP
40
A0
ENDCHAR
STARTCHAR 005F
ENCODING 95
SWIDTH 750 0
DWIDTH 6 0
BBX 4 1 1 -1
BITMAP
F0
ENDCHAR
STARTCHAR 0060
ENCODING 96
SWIDTH 500 0
DWIDTH 4 0
BBX 2 2 1 3
BITMAP
80
40
ENDCHAR
STARTCHAR 0061
ENCODING 97
SWIDTH 750 0
DWIDTH 6 0
BBX 4 5 1 0
BITMAP
60
90
F0
90
90
ENDCHAR
STARTCHAR 0062
ENCODING 98
SWIDTH 750 0
DWIDTH 6 0
BBX 4 5 1 0
BITMAP
E0
90
F0
90
E0
ENDCHAR
STARTCHAR 0063
ENCODING 99
SWIDTH 750 0
DWIDTH 6 0
BBX 4 5 1 0
BITMAP
60
90
80
90
60
ENDCHAR
STARTCHAR 0064
ENCODING 100
SWIDTH 750 0
DWIDTH 6 0
BBX 4 5 1 0
BITMAP
E0
90
90
90
E0
ENDCHAR
STARTCHAR 0065
ENCODING 101
SWIDTH 625 0
DWIDTH 5 0
BBX 3 5 1 0
BITMAP
E0
80
E0
80
E0
ENDCHAR
STARTCHAR 0066
ENCODING 102
SWIDTH 625 0
DWIDTH 5 0
BBX 3 5 1 0
BITMAP
E0
80
E0
80
80
ENDCHAR
STARTCHAR 0067
ENCODING 103
SWIDTH 750 0
DWIDTH 6 0
BBX 4 5 1 0
BITMAP
70
80
B0
90
60
ENDCHAR
STARTCHAR 0068
ENCODING 104
SWIDTH 750 0
DWIDTH 6 0
BBX 4 5 1 0
BITMAP
90
90
F0
90
90
ENDCHAR
STARTCHAR 0069
ENCODING 105
SWIDTH 375 0
DWIDTH 3 0
BBX 1 5 1 0
BITMAP
80
80
80
80
80
ENDCHAR
STARTCHAR 006A
ENCODING 106
SWIDTH 750 0
DWIDTH 6 0
BBX 4 5 1 0
BITMAP
10
10
10
90
60
ENDCHAR
STARTCHAR 006B
ENCODING 107
SWIDTH 750 0
DWIDTH 6 0
BBX 4 5 1 0
BITMAP
90
A0
C0
A0
90
ENDCHAR
STARTCHAR 006C
ENCODING 108
SWIDTH 625 0
DWIDTH 5 0
BBX 3 5 1 0
BITMAP
80
80
80
80
E0
ENDCHAR
STARTCHAR 006D
ENCODING 109
SWIDTH 875 0
DWIDTH 7 0
BBX 5 5 1 0
BITMAP
88
D8
A8
88
88
ENDCHAR
STARTCHAR 006E
ENCODING 110
SWIDTH 875 0
DWIDTH 7 0
BBX 5 5 1 0
BITMAP
88
C8
A8
98
88
ENDCHAR
STARTCHAR 006F
ENCODING 111
SWIDTH 750 0
DWIDTH 6 0
BBX 4 5 1 0
BITMAP
60
90
90
90
60
ENDCHAR
STARTCHAR 0070
ENCODING 112
SWIDTH 750 0
DWIDTH 6 0
BBX 4 5 1 0
BITMAP
E0
90
E0
80
80
ENDCHAR
STARTCHAR 0071
ENCODING 113
SWIDTH 750 0
DWIDTH 6 0
BBX 4 6 1 -1
BITMAP
60
90
90
90
60
10
ENDCHAR
STARTCHAR 0072
ENCODING 114
SWIDTH 750 0
DWIDTH 6 0
BBX 4 5 1 0
BITMAP
E0
90
E0
A0
90
ENDCHAR
STARTCHAR 0073
ENCODING 115
SWIDTH 750 0
DWIDTH 6 0
BBX 4 5 1 0
BITMAP
70
80
60
10
E0
ENDCHAR
STARTCHAR 0074
ENCODING 116
SWIDTH 625 0
DWIDTH 5 0
BBX 3 5 1 0
BITMAP
E0
40
40
40
40
ENDCHAR
STARTCHAR 0075
ENCODING 117
SWIDTH 750 0
DWIDTH 6 0
BBX 4 5 1 0
BITMAP
90
90
90
90
60
ENDCHAR
STARTCHAR 0076
ENCODING 118
SWIDTH 875 0
DWIDTH 7 0
BBX 5 5 1 0
BITMAP
88
88
50
50
20
ENDCHAR
STARTCHAR 0077
ENCODING 119
SWIDTH 875 0
DWIDTH 7 0
BBX 5 5 1 0
BITMAP
88
A8
A8
A8
50
ENDCHAR
STARTCHAR 0078
ENCODING 120
SWIDTH 875 0
DWIDTH 7 0
BBX 5 5 1 0
BITMAP
88
50
20
50
88
ENDCHAR
STARTCHAR 0079
ENCODING 121
SWIDTH 875 0
DWIDTH 7 0
BBX 5 5 1 0
BITMAP
88
50
20
20
20
ENDCHAR
STARTCHAR 007A
ENCODING 122
SWIDTH 625 0
DWIDTH 5 0
BBX 3 5 1 0
BITMAP
E0
20
40
80
E0
ENDCHAR
STARTCHAR 007B
ENCODING 123
SWIDTH 625 0
DWIDTH 5 0
BBX 3 5 1 0
BITMAP
60
40
80
40
60
ENDCHAR
STARTCHAR 007C
ENCODING 124
SWIDTH 375 0
DWIDTH 3 0
BBX 1 7 1 -1
BITMAP
80
80
80
80
80
80
80
ENDCHAR
STARTCHAR 007D
ENCODING 125
SWIDTH 625 0
DWIDTH 5 0
BBX 3 5 1 0
BITMAP
C0
40
20
40
C0
ENDCHAR
STARTCHAR 007E
ENCODING 126
SWIDTH 750 0
DWIDTH 6 0
BBX 4 2 1 3
BITMAP
50
A0
ENDCHAR
STARTCHAR 00A0
ENCODING 160
SWIDTH 500 0
DWIDTH 4 0
BBX 0 0 0 0
BITMAP
ENDCHAR
STARTCHAR 00A1
ENCODING 161
SWIDTH 375 0
DWIDTH 3 0
BBX 1 5 1 0
BITMAP
80
00
80
80
80
ENDCHAR
STARTCHAR 00A2
ENCODING 162
SWIDTH 625 0
DWIDTH 5 0
BBX 3 5 1 0
BITMAP
40
E0
80
E0
40
ENDCHAR
STARTCHAR 00A3
ENCODING 163
SWIDTH 750 0
DWIDTH 6 0
BBX 4 5 1 0
BITMAP
30
20
E0
40
F0
ENDCHAR
STARTCHAR 00A4
ENCODING 164
SWIDTH 875 0
DWIDTH 7 0
BBX 5 5 1 0
BITMAP
A8
50
50
50
A8
ENDCHAR
STARTCHAR 00A5
ENCODING 165
SWIDTH 875 0
DWIDTH 7 0
BBX 5 5 1 0
BITMAP
88
70
20
70
20
ENDCHAR
STARTCHAR 00A6
ENCODING 166
SWIDTH 375 0
DWIDTH 3 0
BBX 1 5 1 0
BITMAP
80
80
00
80
80
ENDCHAR
STARTCHAR 00A7
ENCODING 167
SWIDTH 750 0
DWIDTH 6 0
BBX 4 7 1 -1
BITMAP
60
80
60
90
60
10
60
ENDCHAR
STARTCHAR 00A8
ENCODING 168
SWIDTH 625 0
DWIDTH 5 0
BBX 3 1 1 4
BITMAP
A0
ENDCHAR
STARTCHAR 00A9
ENCODING 169
SWIDTH 1125 0
DWIDTH 9 0
BBX 7 7 1 -1
BITMAP
7C
82
BA
A2
BA
82
7C
ENDCHAR
STARTCHAR 00AA
ENCODING 170
SWIDTH 625 0
DWIDTH 5 0
BBX 3 3 1 2
BITMAP
40
A0
60
ENDCHAR
STARTCHAR 00AB
ENCODING 171
SWIDTH 875 0
DWIDTH 7 0
BBX 5 3 1 1
BITMAP
48
90
48
ENDCHAR
STARTCHAR 00AC
ENCODING 172
SWIDTH 750 0
DWIDTH 6 0
BBX 4 2 1 1
BITMAP
F0
10
ENDCHAR
STARTCHAR 00AD
ENCODING 173
SWIDTH 625 0
DWIDTH 5 0
BBX 3 1 1 2
BITMAP
E0
ENDCHAR
STARTCHAR 00AE
ENCODING 174
SWIDTH 1125 0
DWIDTH 9 0
BBX 7 7 1 -1
BITMAP
7C
82
9A
A2
A2
82
7C
ENDCHAR
STARTCHAR 00AF
ENCODING 175
SWIDTH 750 0
DWIDTH 6 0
BBX 4 1 1 4
BITMAP
F0
ENDCHAR
STARTCHAR 00B0
ENCODING 176
SWIDTH 625 0
DWIDTH 5 0
BBX 3 3 1 2
BITMAP
40
A0
40
ENDCHAR
STARTCHAR 00B1
ENCODING 177
SWIDTH 875 0
DWIDTH 7 0
BBX 5 6 1 -1
BITMAP
20
20
F8
20
20
F8
ENDCHAR
STARTCHAR 00B2
ENCODING 178
SWIDTH 625 0
DWIDTH 5 0
BBX 3 4 1 1
BITMAP
C0
20
40
E0
ENDCHAR
STARTCHAR 00B3
ENCODING 179
SWIDTH 625 0
DWIDTH 5 0
BBX 3 4 1 1
BITMAP
C0
60
20
E0
ENDCHAR
STARTCHAR 00B4
ENCODING 180
SWIDTH 500 0
DWIDTH 4 0
BBX 2 2 1 3
BITMAP
40
80
ENDCHAR
STARTCHAR 00B5
ENCODING 181
SWIDTH 750 0
DWIDTH 6 0
BBX 4 6 1 -1
BITMAP
90
90
90
90
E0
80
ENDCHAR
STARTCHAR 00B6
ENCODING 182
SWIDTH 875 0
DWIDTH 7 0
BBX 5 5 1 0
BITMAP
78
A8
78
28
28
ENDCHAR
STARTCHAR 00B7
ENCODING 183
SWIDTH 375 0
DWIDTH 3 0
BBX 1 1 1 2
BITMAP
80
ENDCHAR
STARTCHAR 00B8
ENCODING 184
SWIDTH 500 0
DWIDTH 4 0
BBX 2 2 1 -1
BITMAP
40
80
ENDCHAR
STARTCHAR 00B9
ENCODING 185
SWIDTH 500 0
DWIDTH 4 0
BBX 2 4 1 1
BITMAP
C0
40
40
40
ENDCHAR
STARTCHAR 00BA
ENCODING 186
SWIDTH 625 0
DWIDTH 5 0
BBX 3 3 1 2
BITMAP
40
A0
40
ENDCHAR
STARTCHAR 00BB
ENCODING 187
SWIDTH 875 0
DWIDTH 7 0
BBX 5 3 1 1
BITMAP
90
48
90
ENDCHAR
STARTCHAR 00BC
ENCODING 188
SWIDTH 1125 0
DWIDTH 9 0
BBX 7 5 1 0
BITMAP
90
90
AA
4E
42
ENDCHAR
STARTCHAR 00BD
ENCODING 189
SWIDTH 1125 0
DWIDTH 9 0
BBX 7 5 1 0
BITMAP
90
9C
A2
44
4E
ENDCHAR
STARTCHAR 00BE
ENCODING 190
SWIDTH 1250 0
DWIDTH 10 0
BBX 8 5 1 0
BITMAP
C8
68
35
E7
21
ENDCHAR
STARTCHAR 00BF
ENCODING 191
SWIDTH 750 0
DWIDTH 6 0
BBX 4 5 1 0
BITMAP
20
00
60
80
70
ENDCHAR
STARTCHAR 00C0
ENCODING 192
SWIDTH 750 0
DWIDTH 6 0
BBX 4 8 1 0
BITMAP
40
20
00
60
90
F0
90
90
ENDCHAR
STARTCHAR 00C1
ENCODING 193
SWIDTH 750 0
DWIDTH 6 0
BBX 4 8 1 0
BITMAP
20
40
00
60
90
F0
90
90
ENDCHAR
STARTCHAR 00C2
ENCODING 194
SWIDTH 750 0
DWIDTH 6 0
BBX 4 8 1 0
BITMAP
60
90
00
60
90
F0
90
90
ENDCHAR
STARTCHAR 00C3
ENCODING 195
SWIDTH 750 0
DWIDTH 6 0
BBX 4 8 1 0
BITMAP
50
A0
00
60
90
F0
90
90
ENDCHAR
STARTCHAR 00C4
ENCODING 196
SWIDTH 750 0
DWIDTH 6 0
BBX 4 7 1 0
BITMAP
90
00
60
90
F0
90
90
ENDCHAR
STARTCHAR 00C5
ENCODING 197
SWIDTH 750 0
DWIDTH 6 0
BBX 4 8 1 0
BITMAP
90
60
00
60
90
F0
90
90
ENDCHAR
STARTCHAR 00C6
ENCODING 198
SWIDTH 875 0
DWIDTH 7 0
BBX 5 5 1 0
BITMAP
78
A0
F8
A0
B8
ENDCHAR
STARTCHAR 00C7
ENCODING 199
SWIDTH 750 0
DWIDTH 6 0
BBX 4 7 1 -2
BITMAP
60
90
80
90
60
40
80
ENDCHAR
STARTCHAR 00C8
ENCODING 200
SWIDTH 625 0
DWIDTH 5 0
BBX 3 8 1 0
BITMAP
80
40
00
E0
80
E0
80
E0
ENDCHAR
STARTCHAR 00C9
ENCODING 201
SWIDTH 625 0
DWIDTH 5 0
BBX 3 8 1 0
BITMAP
20
40
00
E0
80
E0
80
E0
ENDCHAR
STARTCHAR 00CA
ENCODING 202
SWIDTH 625 0
DWIDTH 5 0
BBX 3 8 1 0
BITMAP
40
A0
00
E0
80
E0
80
E0
ENDCHAR
STARTCHAR 00CB
ENCODING 203
SWIDTH 625 0
DWIDTH 5 0
BBX 3 7 1 0
BITMAP
A0
00
E0
80
E0
80
E0
ENDCHAR
STARTCHAR 00CC
ENCODING 204
SWIDTH 375 0
DWIDTH 3 0
BBX 2 8 0 0
BITMAP
80
40
00
40
40
40
40
40
ENDCHAR
STARTCHAR 00CD
ENCODING 205
SWIDTH 375 0
DWIDTH 3 0
BBX 2 8 1 0
BITMAP
40
80
00
80
80
80
80
80
ENDCHAR
STARTCHAR 00CE
ENCODING 206
SWIDTH 375 0
DWIDTH 3 0
BBX 3 8 0 0
BITMAP
40
A0
00
40
40
40
40
40
ENDCHAR
STARTCHAR 00CF
ENCODING 207
SWIDTH 375 0
DWIDTH 3 0
BBX 3 7 0 0
BITMAP
A0
00
40
40
40
40
40
ENDCHAR
STARTCHAR 00D0
ENCODING 208
SWIDTH 875 0
DWIDTH 7 0
BBX 5 5 1 0
BITMAP
70
48
E8
48
70
ENDCHAR
STARTCHAR 00D1
ENCODING 209
SWIDTH 875 0
DWIDTH 7 0
BBX 5 8 1 0
BITMAP
28
50
00
88
C8
A8
98
88
ENDCHAR
STARTCHAR 00D2
ENCODING 210
SWIDTH 750 0
DWIDTH 6 0
BBX 4 8 1 0
BITMAP
40
20
00
60
90
90
90
60
ENDCHAR
STARTCHAR 00D3
ENCODING 211
SWIDTH 750 0
DWIDTH 6 0
BBX 4 8 1 0
BITMAP
20
40
00
60
90
90
90
60
ENDCHAR
STARTCHAR 00D4
ENCODING 212
SWIDTH 750 0
DWIDTH 6 0
BBX 4 8 1 0
BITMAP
60
90
00
60
90
90
90
60
ENDCHAR
STARTCHAR 00D5
ENCODING 213
SWIDTH 750 0
DWIDTH 6 0
BBX 4 8 1 0
BITMAP
50
A0
00
60
90
90
90
60
ENDCHAR
STARTCHAR 00D6
ENCODING 214
SWIDTH 750 0
DWIDTH 6 0
BBX 4 7 1 0
BITMAP
90
00
60
90
90
90
60
ENDCHAR
STARTCHAR 00D7
ENCODING 215
SWIDTH 625 0
DWIDTH 5 0
BBX 3 3 1 1
BITMAP
A0
40
A0
ENDCHAR
STARTCHAR 00D8
ENCODING 216
SWIDTH 875 0
DWIDTH 7 0
BBX 5 5 1 0
BITMAP
70
98
A8
C8
70
ENDCHAR
STARTCHAR 00D9
ENCODING 217
SWIDTH 750 0
DWIDTH 6 0
BBX 4 8 1 0
BITMAP
40
20
00
90
90
90
90
60
ENDCHAR
STARTCHAR 00DA
ENCODING 218
SWIDTH 750 0
DWIDTH 6 0
BBX 4 8 1 0
BITMAP
20
40
00
90
90
90
90
60
ENDCHAR
STARTCHAR 00DB
ENCODING 219
SWIDTH 750 0
DWIDTH 6 0
BBX 4 8 1 0
BITMAP
60
90
00
90
90
90
90
60
ENDCHAR
STARTCHAR 00DC
ENCODING 220
SWIDTH 750 0
DWIDTH 6 0
BBX 4 7 1 0
BITMAP
90
00
90
90
90
90
60
ENDCHAR
STARTCHAR 00DD
ENCODING 221
SWIDTH 875 0
DWIDTH 7 0
BBX 5 8 1 0
BITMAP
10
20
00
88
50
20
20
20
ENDCHAR
STARTCHAR 00DE
ENCODING 222
SWIDTH 625 0
DWIDTH 5 0
BBX 3 5 1 0
BITMAP
80
C0
A0
C0
80
ENDCHAR
STARTCHAR 00DF
ENCODING 223
SWIDTH 750 0
DWIDTH 6 0
BBX 4 5 1 0
BITMAP
60
90
A0
90
A0
ENDCHAR
STARTCHAR 00E0
ENCODING 224
SWIDTH 750 0
DWIDTH 6 0
BBX 4 8 1 0
BITMAP
40
20
00
60
90
F0
90
90
ENDCHAR
STARTCHAR 00E1
ENCODING 225
SWIDTH 750 0
DWIDTH 6 0
BBX 4 8 1 0
BITMAP
20
40
00
60
90
F0
90
90
ENDCHAR
STARTCHAR 00E2
ENCODING 226
SWIDTH 750 0
DWIDTH 6 0
BBX 4 8 1 0
BITMAP
60
90
00
60
90
F0
90
90
ENDCHAR
STARTCHAR 00E3
ENCODING 227
SWIDTH 750 0
DWIDTH 6 0
BBX 4 8 1 0
BITMAP
50
A0
00
60
90
F0
90
90
ENDCHAR
STARTCHAR 00E4
ENCODING 228
SWIDTH 750 0
DWIDTH 6 0
BBX 4 7 1 0
BITMAP
90
00
60
90
F0
90
90
ENDCHAR
STARTCHAR 00E5
ENCODING 229
SWIDTH 750 0
DWIDTH 6 0
BBX 4 8 1 0
BITMAP
90
60
00
60
90
F0
90
90
ENDCHAR
STARTCHAR 00E6
ENCODING 230
SWIDTH 875 0
DWIDTH 7 0
BBX 5 5 1 0
BITMAP
78
A0
F8
A0
B8
ENDCHAR
STARTCHAR 00E7
ENCODING 231
SWIDTH 750 0
DWIDTH 6 0
BBX 4 7 1 -2
BITMAP
60
90
80
90
60
40
80
ENDCHAR
STARTCHAR 00E8
ENCODING 232
SWIDTH 625 0
DWIDTH 5 0
BBX 3 8 1 0
BITMAP
80
40
00
E0
80
E0
80
E0
ENDCHAR
STARTCHAR 00E9
ENCODING 233
SWIDTH 625 0
DWIDTH 5 0
BBX 3 8 1 0
BITMAP
20
40
00
E0
80
E0
80
E0
ENDCHAR
STARTCHAR 00EA
ENCODING 234
SWIDTH 625 0
DWIDTH 5 0
BBX 3 8 1 0
BITMAP
40
A0
00
E0
80
E0
80
E0
ENDCHAR
STARTCHAR 00EB
ENCODING 235
SWIDTH 625 0
DWIDTH 5 0
BBX 3 7 1 0
BITMAP
A0
00
E0
80
E0
80
E0
ENDCHAR
STARTCHAR 00EC
ENCODING 236
SWIDTH 375 0
DWIDTH 3 0
BBX 2 8 0 0
BITMAP
80
40
00
40
40
40
40
40
ENDCHAR
STARTCHAR 00ED
ENCODING 237
SWIDTH 375 0
DWIDTH 3 0
BBX 2 8 1 0
BITMAP
40
80
00
80
80
80
80
80
ENDCHAR
STARTCHAR 00EE
ENCODING 238
SWIDTH 375 0
DWIDTH 3 0
BBX 3 8 0 0
BITMAP
40
A0
00
40
40
40
40
40
ENDCHAR
STARTCHAR 00EF
ENCODING 239
SWIDTH 375 0
DWIDTH 3 0
BBX 3 7 0 0
BITMAP
A0
00
40
40
40
40
40
ENDCHAR
STARTCHAR 00F0
ENCODING 240
SWIDTH 875 0
DWIDTH 7 0
BBX 5 5 1 0
BITMAP
70
48
E8
48
70
ENDCHAR
STARTCHAR 00F1
ENCODING 241
SWIDTH 875 0
DWIDTH 7 0
BBX 5 8 1 0
BITMAP
28
50
00
88
C8
A8
98
88
ENDCHAR
STARTCHAR 00F2
ENCODING 242
SWIDTH 750 0
DWIDTH 6 0
BBX 4 8 1 0
BITMAP
40
20
00
60
90
90
90
60
ENDCHAR
STARTCHAR 00F3
ENCODING 243
SWIDTH 750 0
DWIDTH 6 0
BBX 4 8 1 0
BITMAP
20
40
00
60
90
90
90
60
ENDCHAR
STARTCHAR 00F4
ENCODING 244
SWIDTH 750 0
DWIDTH 6 0
BBX 4 8 1 0
BITMAP
60
90
00
60
90
90
90
60
ENDCHAR
STARTCHAR 00F5
ENCODING 245
SWIDTH 750 0
DWIDTH 6 0
BBX 4 8 1 0
BITMAP
50
A0
00
60
90
90
90
60
ENDCHAR
STARTCHAR 00F6
ENCODING 246
SWIDTH 750 0
DWIDTH 6 0
BBX 4 7 1 0
BITMAP
90
00
60
90
90
90
60
ENDCHAR
STARTCHAR 00F7
ENCODING 247
SWIDTH 625 0
DWIDTH 5 0
BBX 3 5 1 0
BITMAP
40
00
E0
00
40
ENDCHAR
STARTCHAR 00F8
ENCODING 248
SWIDTH 875 0
DWIDTH 7 0
BBX 5 5 1 0
BITMAP
70
98
A8
C8
70
ENDCHAR
STARTCHAR 00F9
ENCODING 249
SWIDTH 750 0
DWIDTH 6 0
BBX 4 8 1 0
BITMAP
40
20
00
90
90
90
90
60
ENDCHAR
STARTCHAR 00FA
ENCODING 250
SWIDTH 750 0
DWIDTH 6 0
BBX 4 8 1 0
BITMAP
20
40
00
90
90
90
90
60
ENDCHAR
STARTCHAR 00FB
ENCODING 251
SWIDTH 750 0
DWIDTH 6 0
BBX 4 8 1 0
BITMAP
60
90
00
90
90
90
90
60
ENDCHAR
STARTCHAR 00FC
ENCODING 252
SWIDTH 750 0
DWIDTH 6 0
BBX 4 7 1 0
BITMAP
90
00
90
90
90
90
60
ENDCHAR
STARTCHAR 00FD
ENCODING 253
SWIDTH 875 0
DWIDTH 7 0
BBX 5 8 1 0
BITMAP
10
20
00
88
50
20
20
20
ENDCHAR
STARTCHAR 00FE
ENCODING 254
SWIDTH 625 0
DWIDTH 5 0
BBX 3 5 1 0
BITMAP
80
C0
A0
C0
80
ENDCHAR
STARTCHAR 00FF
ENCODING 255
SWIDTH 875 0
DWIDTH 7 0
BBX 5 7 1 0
BITMAP
50
00
88
50
20
20
20
ENDCHAR
STARTCHAR 0152
ENCODING 338
SWIDTH 875 0
DWIDTH 7 0
BBX 5 5 1 0
BITMAP
78
A0
B8
A0
78
ENDCHAR
STARTCHAR 0153
ENCODING 339
SWIDTH 875 0
DWIDTH 7 0
BBX 5 5 1 0
BITMAP
78
A0
B8
A0
78
ENDCHAR
STARTCHAR 0160
ENCODING 352
SWIDTH 750 0
DWIDTH 6 0
BBX 4 8 1 0
BITMAP
90
60
00
70
80
60
10
E0
ENDCHAR
STARTCHAR 0161
ENCODING 353
SWIDTH 750 0
DWIDTH 6 0
BBX 4 8 1 0
BITMAP
90
60
00
70
80
60
10
E0
ENDCHAR
STARTCHAR 0178
ENCODING 376
SWIDTH 875 0
DWIDTH 7 0
BBX 5 7 1 0
BITMAP
50
00
88
50
20
20
20
ENDCHAR
STARTCHAR 017D
ENCODING 381
SWIDTH 625 0
DWIDTH 5 0
BBX 3 8 1 0
BITMAP
A0
40
00
E0
20
40
80
E0
ENDCHAR
STARTCHAR 017E
ENCODING 382
SWIDTH 625 0
DWIDTH 5 0
BBX 3 8 1 0
BITMAP
A0
40
00
E0
20
40
80
E0
ENDCHAR
STARTCHAR 0192
ENCODING 402
SWIDTH 875 0
DWIDTH 7 0
BBX 5 6 1 -1
BITMAP
38
20
70
40
40
80
ENDCHAR
STARTCHAR 02C6
ENCODING 710
SWIDTH 625 0
DWIDTH 5 0
BBX 3 2 1 4
BITMAP
40
A0
ENDCHAR
STARTCHAR 02DC
ENCODING 732
SWIDTH 750 0
DWIDTH 6 0
BBX 4 2 1 3
BITMAP
50
A0
ENDCHAR
STARTCHAR 2013
ENCODING 8211
SWIDTH 750 0
DWIDTH 6 0
BBX 4 1 1 2
BITMAP
F0
ENDCHAR
STARTCHAR 2014
ENCODING 8212
SWIDTH 1000 0
DWIDTH 8 0
BBX 6 1 1 2
BITMAP
FC
ENDCHAR
STARTCHAR 2018
ENCODING 8216
SWIDTH 375 0
DWIDTH 3 0
BBX 1 2 1 3
BITMAP
80
80
ENDCHAR
STARTCHAR 2019
ENCODING 8217
SWIDTH 375 0
DWIDTH 3 0
BBX 1 2 1 3
BITMAP
80
80
ENDCHAR
STARTCHAR 201A
ENCODING 8218
SWIDTH 500 0
DWIDTH 4 0
BBX 2 2 1 -1
BITMAP
40
80
ENDCHAR
STARTCHAR 201C
ENCODING 8220
SWIDTH 625 0
DWIDTH 5 0
BBX 3 2 1 3
BITMAP
A0
A0
ENDCHAR
STARTCHAR 201D
ENCODING 8221
SWIDTH 625 0
DWIDTH 5 0
BBX 3 2 1 3
BITMAP
A0
A0
ENDCHAR
STARTCHAR 201E
ENCODING 8222
SWIDTH 625 0
DWIDTH 5 0
BBX 3 2 1 0
BITMAP
A0
A0
ENDCHAR
STARTCHAR 2020
ENCODING 8224
SWIDTH 625 0
DWIDTH 5 0
BBX 3 5 1 0
BITMAP
40
E0
40
40
40
ENDCHAR
STARTCHAR 2021
ENCODING 8225
SWIDTH 625 0
DWIDTH 5 0
BBX 3 5 1 0
BITMAP
40
E0
40
E0
40
ENDCHAR
STARTCHAR 2022
ENCODING 8226
SWIDTH 375 0
DWIDTH 3 0
BBX 1 1 1 2
BITMAP
80
ENDCHAR
STARTCHAR 2026
ENCODING 8230
SWIDTH 875 0
DWIDTH 7 0
BBX 5 1 1 0
BITMAP
A8
ENDCHAR
STARTCHAR 2030
ENCODING 8240
SWIDTH 1000 0
DWIDTH 8 0
BBX 6 5 1 0
BITMAP
D0
D0
20
54
54
ENDCHAR
STARTCHAR 2039
ENCODING 8249
SWIDTH 500 0
DWIDTH 4 0
BBX 2 3 1 1
BITMAP
40
80
40
ENDCHAR
STARTCHAR 203A
ENCODING 8250
SWIDTH 500 0
DWIDTH 4 0
BBX 2 3 1 1
BITMAP
80
40
80
ENDCHAR
STARTCHAR 20AC
ENCODING 8364
SWIDTH 875 0
DWIDTH 7 0
BBX 5 5 1 0
BITMAP
30
48
E0
48
30
ENDCHAR
STARTCHAR 2122
ENCODING 8482
SWIDTH 1250 0
DWIDTH 10 0
BBX 8 3 1 3
BITMAP
FB
55
55
ENDCHAR
ENDFONT
